<svg width="168" height="80" viewBox="0 0 168 80" fill="none" xmlns="http://www.w3.org/2000/svg">
<g opacity="0.95">
<circle cx="83.1504" cy="43.798" r="13.65" transform="rotate(-3.84411 83.1504 43.798)" fill="white"/>
<circle cx="102.084" cy="34.7083" r="13.65" transform="rotate(-3.84411 102.084 34.7083)" fill="white"/>
<circle cx="103.129" cy="50.2732" r="13.65" transform="rotate(-3.84411 103.129 50.2732)" fill="white"/>
<circle cx="119.207" cy="37.4665" r="13.65" transform="rotate(-3.84411 119.207 37.4665)" fill="white"/>
<circle cx="126.564" cy="50.0015" r="13.65" transform="rotate(-3.84411 126.564 50.0015)" fill="white"/>
<circle cx="140.222" cy="39.9632" r="13.65" transform="rotate(-3.84411 140.222 39.9632)" fill="white"/>
</g>
<g opacity="0.95">
<circle cx="15.0572" cy="56.054" r="13.65" transform="rotate(-3.84411 15.0572 56.054)" fill="white"/>
<circle cx="33.9904" cy="46.9642" r="13.65" transform="rotate(-3.84411 33.9904 46.9642)" fill="white"/>
<circle cx="35.0362" cy="62.5291" r="13.65" transform="rotate(-3.84411 35.0362 62.5291)" fill="white"/>
<circle cx="51.1138" cy="49.7224" r="13.65" transform="rotate(-3.84411 51.1138 49.7224)" fill="white"/>
<circle cx="58.4708" cy="62.2574" r="13.65" transform="rotate(-3.84411 58.4708 62.2574)" fill="white"/>
<circle cx="72.1285" cy="52.2192" r="13.65" transform="rotate(-3.84411 72.1285 52.2192)" fill="white"/>
</g>
<g opacity="0.6">
<circle cx="94.991" cy="26.1516" r="13.65" transform="rotate(-3.84411 94.991 26.1516)" fill="white"/>
<circle cx="113.924" cy="17.0619" r="13.65" transform="rotate(-3.84411 113.924 17.0619)" fill="white"/>
<circle cx="114.97" cy="32.6268" r="13.65" transform="rotate(-3.84411 114.97 32.6268)" fill="white"/>
<circle cx="131.048" cy="19.8201" r="13.65" transform="rotate(-3.84411 131.048 19.8201)" fill="white"/>
<circle cx="138.405" cy="32.3551" r="13.65" transform="rotate(-3.84411 138.405 32.3551)" fill="white"/>
<circle cx="152.062" cy="22.3168" r="13.65" transform="rotate(-3.84411 152.062 22.3168)" fill="white"/>
</g>
<g opacity="0.6">
<circle cx="37.3171" cy="47.8815" r="13.65" transform="rotate(-4.59401 37.3171 47.8815)" fill="white"/>
<circle cx="56.1297" cy="38.5447" r="13.65" transform="rotate(-4.59401 56.1297 38.5447)" fill="white"/>
<circle cx="57.3792" cy="54.0946" r="13.65" transform="rotate(-4.59401 57.3792 54.0946)" fill="white"/>
<circle cx="73.2878" cy="41.0786" r="13.65" transform="rotate(-4.59401 73.2878 41.0786)" fill="white"/>
<circle cx="80.8081" cy="53.5162" r="13.65" transform="rotate(-4.59401 80.8081 53.5162)" fill="white"/>
<circle cx="94.3333" cy="43.3001" r="13.65" transform="rotate(-4.59401 94.3333 43.3001)" fill="white"/>
</g>
</svg>
